<?xml version="1.0" encoding="UTF-8" standalone="no"?>
<svg width="90px" height="20px" viewBox="0 0 90 20" version="1.1" xmlns="http://www.w3.org/2000/svg" xmlns:xlink="http://www.w3.org/1999/xlink">
    <!-- Generator: Sketch 39.1 (31720) - http://www.bohemiancoding.com/sketch -->
    <title>logo - SHAKLEE</title>
    <desc>Created with Sketch.</desc>
    <defs></defs>
    <g id="OCTOBER-GIANT-EDIT-v2-@2x-CLEAN" stroke="none" stroke-width="1" fill="none" fill-rule="evenodd">
        <g id="HOME-@2x" transform="translate(-986.000000, -509.000000)" fill="#FFFFFF">
            <g id="Masthead-Global">
                <g id="bg-copy-2-+-Nav-Copy-+-Nav-Copy-2-+-Nav-Copy-3-+-Oval-4-Copy">
                    <g id="Group-10" transform="translate(0.000000, 480.000000)">
                        <g id="Group-9">
                            <g id="LOGO-BAR">
                                <g id="LOGOS" transform="translate(28.000000, 19.000000)">
                                    <g id="Group-5" transform="translate(187.000000, 10.000000)">
                                        <g id="logo---SHAKLEE" transform="translate(771.756820, 0.000000)">
                                            <path d="M76.8970976,11.0267707 C77.8091436,9.23345813 76.5365049,8.15677008 74.6208562,8.15677008 C71.4783472,8.15677008 69.3964877,10.3087451 68.5076831,12.6400515 C67.3195583,15.7769474 68.3168225,17.6613266 70.7973059,17.6613266 C72.0741703,17.6613266 73.3714588,17.2494252 74.1665939,16.7653709 L74.6138134,16.4956735 L75.1638581,14.791326 L74.6300119,15.202527 C74.1257455,15.5990172 72.9150837,16.2259761 72.1523456,16.2259761 C71.1269101,16.2259761 70.5740483,15.5990172 70.9959136,13.8939692 L71.3846776,13.8050041 C72.9362122,13.4470421 76.0385771,12.7290166 76.8970976,11.0267707 L76.8970976,11.0267707 Z M74.480704,10.7577738 C73.7764213,12.0130926 72.7319702,12.4600197 71.8220371,12.7290166 L71.2276225,12.9097489 L71.4058061,12.4074813 C71.8290799,11.2054014 72.6488649,9.23345813 73.975029,9.23345813 C74.9469391,9.23345813 74.9060907,10.0054231 74.480704,10.7577738 L74.480704,10.7577738 Z" id="Fill-28"></path>
                                            <path d="M85.899238,11.0267707 C86.8126926,9.23345813 85.5407582,8.15677008 83.6244052,8.15677008 C80.4811919,8.15677008 78.4014453,10.3087451 77.5105278,12.6400515 C76.3245159,15.7769474 77.3231886,17.6613266 79.8008549,17.6613266 C81.077015,17.6613266 82.377825,17.2494252 83.1687343,16.7653709 L83.6187709,16.4956735 L84.1674071,14.791326 L83.6356737,15.202527 C83.1292945,15.5990172 81.9200413,16.2259761 81.1537818,16.2259761 C80.1318677,16.2259761 79.5761887,15.5990172 80.0015754,13.8939692 L80.3882266,13.8050041 C81.9397612,13.4470421 85.0428304,12.7290166 85.899238,11.0267707 L85.899238,11.0267707 Z M83.4870701,10.7577738 C82.7813789,12.0130926 81.7362235,12.4600197 80.8262903,12.7290166 L80.2304673,12.9097489 L80.4100593,12.4074813 C80.8312203,11.2054014 81.6517096,9.23345813 82.9799866,9.23345813 C83.950488,9.23345813 83.9103439,10.0054231 83.4870701,10.7577738 L83.4870701,10.7577738 Z" id="Fill-29"></path>
                                            <path d="M50.0723813,12.4362023 C49.0920199,15.035805 48.0123546,16.1117925 46.9911448,16.1117925 C46.044589,16.1117925 45.8459813,15.035805 46.7368988,12.7037981 C47.7130345,10.1945616 48.6983259,9.38687041 49.5948777,9.38687041 C50.6160875,9.38687041 50.9604817,10.1048959 50.0723813,12.4362023 L50.0723813,12.4362023 Z M52.743021,8.48951362 C52.1929762,8.48951362 51.6542,8.45378747 51.3485414,8.40054851 L51.1316223,9.29720479 C50.9534388,8.79423665 50.4210012,8.22121725 49.2723162,8.22121725 C46.8467669,8.22121725 44.6451794,10.1945616 43.6662266,12.7941643 C42.5661371,15.7174038 43.2816883,17.6368087 45.4544002,17.6368087 C46.9862148,17.6368087 48.3180133,16.6511873 49.0032803,15.7524295 L48.4574612,17.3664108 C48.798334,17.3145728 49.2723162,17.2774457 49.8216567,17.2774457 C50.3745185,17.2774457 50.9118862,17.3145728 51.2175448,17.3664108 L54.1945474,8.39984799 C53.8543789,8.45378747 53.2930657,8.48951362 52.743021,8.48951362 L52.743021,8.48951362 Z" id="Fill-30"></path>
                                            <path d="M64.4024197,8.39984799 L59.7055589,11.7966342 L62.4402883,17.3425933 C62.1374468,17.2900549 61.4416156,17.2459226 60.8908666,17.2459226 C60.3401176,17.2459226 59.7661272,17.2900549 59.4259587,17.3425933 L57.3687492,12.7591386 L56.005258,17.3664108 C55.7003037,17.3145728 55.1967416,17.2774457 54.6466969,17.2774457 C54.0966522,17.2774457 53.5360432,17.3145728 53.196579,17.3664108 L57.5504541,4.09589786 C57.8554085,4.14843631 58.3589706,4.18556349 58.9097196,4.18556349 C59.4583557,4.18556349 60.019669,4.14913683 60.3605418,4.09589786 L57.6166567,11.9150208 L62.2818247,8.39984799 C62.5121252,8.45378747 62.8924378,8.48951362 63.3072602,8.48951362 C63.7213784,8.48951362 64.1460608,8.45378747 64.4024197,8.39984799" id="Fill-32"></path>
                                            <path d="M65.4975792,17.3664108 C65.1933291,17.3145728 64.6883584,17.2774457 64.1397223,17.2774457 C63.5889733,17.2774457 63.0269557,17.3145728 62.6867872,17.3664108 L67.0413667,4.09589786 C67.346321,4.14843631 67.8498831,4.18556349 68.4006321,4.18556349 C68.9506768,4.18556349 69.5119901,4.14913683 69.8514543,4.09589786 L65.4975792,17.3664108" id="Fill-33"></path>
                                            <path d="M31.1863386,4.0377553 C28.7262794,4.0377553 26.0422584,5.51793867 25.1513408,8.13085111 C23.6857287,12.4298977 30.1073776,11.6726434 29.1319462,14.5307353 C28.7692407,15.5899105 27.6670384,16.4613483 26.0542312,16.4613483 C24.3780385,16.4613483 23.265272,15.5149557 23.4117628,14.4165517 L23.2258322,14.4165517 L22.3715374,17.0175554 C22.9793333,17.3538015 24.1385824,17.6368087 25.3886841,17.6368087 C28.6776839,17.6368087 31.2102842,15.893933 32.0758475,13.3559755 C33.5414597,9.05903046 27.0162812,9.71961395 27.9705842,6.91686257 C28.2825814,6.00759706 29.4411263,5.21251513 30.703905,5.21251513 C31.9645709,5.21251513 33.4097588,5.76101659 33.4766657,6.8412072 L33.6273822,6.8412072 L34.2612365,4.96593465 C33.6696391,4.39781884 32.6758963,4.0377553 31.1863386,4.0377553" id="Fill-34"></path>
                                            <path d="M37.8861791,17.3664108 L39.8638047,11.3609153 C40.230736,10.2302877 40.2096075,9.65516678 39.443348,9.65516678 C38.4228425,9.65516678 37.2248578,10.5525236 36.4564854,12.9734955 L35.0753872,17.3664108 C34.7725457,17.3145728 34.2675751,17.2774457 33.7182346,17.2774457 C33.1681899,17.2774457 32.6047638,17.3145728 32.2652996,17.3664108 L36.6212876,4.09589786 C36.9248334,4.14843631 37.4290997,4.18556349 37.9784402,4.18556349 C38.5291892,4.18556349 39.0897981,4.14913683 39.4306709,4.09589786 L37.3861385,9.92486418 C38.0171757,9.11857404 39.3968654,8.13155162 40.8026135,8.13155162 C42.4626076,8.13155162 43.3260581,9.20683864 42.6781181,11.2698486 L40.6976754,17.3664108 C40.3920167,17.3145728 39.8884546,17.2774457 39.3384099,17.2774457 C38.7883652,17.2774457 38.2263476,17.3145728 37.8861791,17.3664108" id="Fill-31"></path>
                                            <path d="M87.8008011,8.868491 L88.014903,8.868491 C88.1374482,8.868491 88.2768962,8.89440997 88.2768962,9.04642123 C88.2768962,9.21944787 88.1536467,9.2376612 88.0113816,9.2376612 L87.8008011,9.2376612 L87.8008011,8.868491 L87.8008011,8.868491 Z M87.5585279,9.97319956 L87.8008011,9.97319956 L87.8008011,9.41979451 L87.945179,9.41979451 L88.2797133,9.97319956 L88.5269165,9.97319956 L88.1797052,9.41068785 C88.3902857,9.39107349 88.5177608,9.28389504 88.5177608,9.06393405 C88.5177608,8.79353614 88.3501416,8.6863577 88.0395529,8.6863577 L87.5585279,8.6863577 L87.5585279,9.97319956 L87.5585279,9.97319956 Z M87.9987045,10.4705636 C88.6276289,10.4705636 89.1417552,9.96129084 89.1417552,9.33433196 C89.1417552,8.7087741 88.6276289,8.19880084 87.9987045,8.19880084 C87.3697801,8.19880084 86.8577667,8.7087741 86.8577667,9.33433196 C86.8577667,9.96129084 87.3697801,10.4705636 87.9987045,10.4705636 L87.9987045,10.4705636 Z M87.9987045,10.2506026 C87.5219052,10.2506026 87.1345498,9.86602111 87.1345498,9.33433196 C87.1345498,8.80264281 87.5219052,8.41876184 87.9987045,8.41876184 C88.4762081,8.41876184 88.8635636,8.80264281 88.8635636,9.33433196 C88.8635636,9.86602111 88.4762081,10.2506026 87.9987045,10.2506026 L87.9987045,10.2506026 Z" id="Fill-35"></path>
                                            <path d="M1.69943396,14.0312697 C1.69943396,14.0312697 20.232631,12.8684186 22.6067677,0.349555846 C20.5432197,8.67795154 10.6888973,7.39461224 10.6888973,7.39461224 C10.6888973,7.39461224 5.58566544,6.82719694 2.58330864,9.42820066 C-0.754286684,12.3178156 0.0971910013,16.8424273 0.0971910013,16.8424273 C1.0374083,16.746457 1.9367772,16.6266693 2.80022769,16.4865668 C2.28610138,15.8455977 1.88888598,15.0428101 1.69943396,14.0312697" id="Fill-37"></path>
                                            <path d="M22.6067677,0.349555846 C22.6067677,0.349555846 21.6686633,13.4204226 2.80022769,16.4865668 C4.95321965,19.167429 9.19018388,18.9705849 9.19018388,18.9705849 C23.3561245,18.0234917 22.6067677,0.349555846 22.6067677,0.349555846" id="Fill-39"></path>
                                            <path d="M1.64238706,18.1250661 L1.82127485,18.1250661 C1.92269155,18.1250661 2.04523672,18.1460814 2.04523672,18.2735747 C2.04523672,18.4199819 1.93818576,18.4360937 1.81775344,18.4360937 L1.64238706,18.4360937 L1.64238706,18.1250661 L1.64238706,18.1250661 Z M1.44025795,19.0497428 L1.64238706,19.0497428 L1.64238706,18.5853029 L1.76422796,18.5853029 L2.04875814,19.0497428 L2.25088725,19.0497428 L1.95649711,18.5796988 C2.13749774,18.5642875 2.2445487,18.4760229 2.2445487,18.2882855 C2.2445487,18.0634209 2.10017077,17.9751563 1.84592474,17.9751563 L1.44025795,17.9751563 L1.44025795,19.0497428 L1.44025795,19.0497428 Z M1.81000633,19.4644464 C2.33469688,19.4644464 2.76501356,19.0406362 2.76501356,18.5173532 C2.76501356,17.9940702 2.33469688,17.5695595 1.81000633,17.5695595 C1.28461149,17.5695595 0.854999098,17.9940702 0.854999098,18.5173532 C0.854999098,19.0406362 1.28461149,19.4644464 1.81000633,19.4644464 L1.81000633,19.4644464 Z M1.81000633,19.2788105 C1.40856524,19.2788105 1.0860038,18.9628793 1.0860038,18.5173532 C1.0860038,18.0725276 1.40856524,17.7523933 1.81000633,17.7523933 C2.21003885,17.7523933 2.52907888,18.0725276 2.52907888,18.5173532 C2.52907888,18.9628793 2.21003885,19.2788105 1.81000633,19.2788105 L1.81000633,19.2788105 Z" id="Fill-40"></path>
                                        </g>
                                    </g>
                                </g>
                            </g>
                        </g>
                    </g>
                </g>
            </g>
        </g>
    </g>
</svg>