<?xml version="1.0" encoding="UTF-8" standalone="no"?>
<svg width="65px" height="16px" viewBox="0 0 65 16" version="1.1" xmlns="http://www.w3.org/2000/svg" xmlns:xlink="http://www.w3.org/1999/xlink">
    <!-- Generator: Sketch 39.1 (31720) - http://www.bohemiancoding.com/sketch -->
    <title>logo - FITBIT</title>
    <desc>Created with Sketch.</desc>
    <defs></defs>
    <g id="OCTOBER-GIANT-EDIT-v2-@2x-CLEAN" stroke="none" stroke-width="1" fill="none" fill-rule="evenodd">
        <g id="HOME-@2x" transform="translate(-215.000000, -510.000000)" fill="#FFFFFF">
            <g id="Masthead-Global">
                <g id="bg-copy-2-+-Nav-Copy-+-Nav-Copy-2-+-Nav-Copy-3-+-Oval-4-Copy">
                    <g id="Group-10" transform="translate(0.000000, 480.000000)">
                        <g id="Group-9">
                            <g id="LOGO-BAR">
                                <g id="LOGOS" transform="translate(28.000000, 19.000000)">
                                    <g id="Group-5" transform="translate(187.000000, 10.000000)">
                                        <g id="logo---FITBIT" transform="translate(0.390123, 0.827586)">
                                            <g id="fitbit_logo">
                                                <path d="M23.9149833,5.85825385 L20.8923149,5.85825385 L20.8923149,4.38303742 C20.9053512,2.67574468 21.3602136,2.04114453 21.8598224,1.71574468 C22.3756386,1.37837124 23.1613421,1.34773294 23.9146309,1.35477623 C24.2320834,1.35477623 24.4878774,1.09804842 24.4878774,0.780396185 C24.4878774,0.464504769 24.2320834,0.207776963 23.9146309,0.207776963 C23.1645131,0.213763756 22.1519068,0.182068966 21.2464099,0.746236244 C20.3250581,1.32237711 19.7327856,2.48944974 19.7447649,4.38303742 L19.7447649,5.85860602 L18.5637433,5.85860602 C18.2459385,5.85860602 17.9887351,6.11603815 17.9887351,6.43122524 C17.9887351,6.74746882 18.2459385,7.00525312 18.5637433,7.00525312 L19.7447649,7.00525312 L19.7447649,15.6019369 C19.7447649,15.9174762 20.0012636,16.1766691 20.318716,16.1766691 C20.6361685,16.1766691 20.8933719,15.9174762 20.8933719,15.6019369 C20.8930195,10.1046515 20.8919625,9.72572267 20.8919625,7.00525312 L23.9142786,7.00525312 C24.2310264,7.00525312 24.4892868,6.74746882 24.4892868,6.43122524 C24.4896391,6.11568599 24.2313787,5.85825385 23.9149833,5.85825385" id="Fill-1"></path>
                                                <path d="M37.431198,15.0303742 L37.431198,15.027909 C36.4636904,15.036361 35.6832719,14.9782539 35.2407411,14.6454585 C34.8024383,14.3337931 34.4134622,13.6530594 34.4081772,11.9182979 C34.4074726,9.45068232 34.4067679,8.30966985 34.4067679,7.02074835 L37.4304933,7.02074835 C37.7475934,7.02074835 38.0047968,6.76331621 38.0047968,6.44672047 C38.0047968,6.13012472 37.747241,5.87410125 37.4304933,5.87410125 L34.4067679,5.87410125 C34.4067679,4.73168012 34.4081772,3.25716801 34.4081772,0.781452678 C34.4081772,0.464504769 34.1502692,0.207776963 33.8331691,0.207776963 C33.516069,0.207776963 33.2613319,0.464856933 33.2613319,0.781452678 L33.2613319,5.87410125 L32.078901,5.87410125 C31.7632102,5.87410125 31.5060068,6.13047689 31.5060068,6.44672047 C31.5060068,6.76331621 31.7635626,7.02074835 32.078901,7.02074835 L33.2613319,7.02074835 L33.2613319,11.9182979 C33.2549899,13.7858254 33.697873,14.9465591 34.5720123,15.5776376 C35.4443898,16.1851211 36.4633381,16.1682172 37.4308456,16.1763169 C37.7475934,16.1763169 38.0044444,15.919237 38.0044444,15.6019369 C38.0044444,15.284989 37.747241,15.0303742 37.431198,15.0303742" id="Fill-3"></path>
                                                <path d="M63.8195619,15.0317828 L63.8195619,15.0289655 C62.5811099,15.0374175 61.8218314,14.9021864 61.4561093,14.5634043 C61.0787602,14.2517388 60.7940748,13.5305062 60.7961888,11.9425972 L60.7961888,7.02039618 L63.8192095,7.02039618 C64.1373666,7.02039618 64.392456,6.76331621 64.392456,6.44672047 C64.392456,6.13012472 64.1373666,5.87410125 63.8192095,5.87410125 L60.7961888,5.87410125 L60.7961888,0.780396185 C60.7961888,0.463448276 60.5403947,0.208129127 60.2239993,0.208129127 C59.9068992,0.208129127 59.6489912,0.463448276 59.6489912,0.780396185 L59.6489912,5.87410125 L58.4672649,5.87410125 C58.1501648,5.87410125 57.8926091,6.13012472 57.8926091,6.44672047 C57.8926091,6.76331621 58.1501648,7.02039618 58.4672649,7.02039618 L59.6489912,7.02039618 L59.6489912,11.9425972 C59.6525145,13.6192517 59.9121842,14.727865 60.7052868,15.4297285 C61.5100163,16.1072927 62.5486952,16.1671607 63.8195619,16.1763169 C64.1359573,16.1763169 64.392456,15.9188848 64.392456,15.6033456 C64.392456,15.2863977 64.1356049,15.0317828 63.8195619,15.0317828" id="Fill-4"></path>
                                                <path d="M27.3925141,15.6019369 L27.3925141,6.43192957 C27.3925141,6.11568599 27.6500699,5.85825385 27.9650559,5.85825385 C28.282156,5.85825385 28.5397118,6.11568599 28.5397118,6.43192957 L28.5397118,15.6019369 C28.5397118,15.9174762 28.282156,16.1763169 27.9650559,16.1763169 C27.6500699,16.1763169 27.3925141,15.9174762 27.3925141,15.6019369" id="Fill-5"></path>
                                                <path d="M54.0246928,15.6019369 L54.0246928,6.43192957 C54.0246928,6.11568599 54.2794298,5.85825385 54.5958252,5.85825385 C54.9139823,5.85825385 55.170481,6.11568599 55.170481,6.43192957 L55.170481,15.6019369 C55.170481,15.9174762 54.9139823,16.1763169 54.5958252,16.1763169 C54.2794298,16.1763169 54.0246928,15.9174762 54.0246928,15.6019369" id="Fill-6"></path>
                                                <path d="M46.0749938,15.0529127 C43.8401429,15.0486867 42.0323201,13.2445488 42.0291491,11.0111225 C42.0323201,8.7762876 43.8404952,6.97144534 46.0749938,6.96757153 C48.30914,6.97144534 50.1152011,8.77593544 50.1187245,11.0111225 C50.1144965,13.2441966 48.3087877,15.0483346 46.0749938,15.0529127 L46.0749938,15.0529127 Z M46.0749938,5.8202201 C44.4391097,5.82092443 42.9804493,6.5787821 42.0291491,7.76064563 L42.0291491,0.781452678 C42.0291491,0.464504769 41.7719457,0.208129127 41.456255,0.208129127 C41.1388026,0.208129127 40.8823038,0.464856933 40.8823038,0.781452678 L40.8823038,11.3562436 C40.8823038,11.3967425 40.8971018,11.4326632 40.9059102,11.4714013 C41.1395072,14.121438 43.3620264,16.1995598 46.0753461,16.1995598 C48.9426355,16.1995598 51.2662744,13.8777403 51.2662744,11.0111225 C51.2659221,8.1441526 48.9422832,5.8212766 46.0749938,5.8202201 L46.0749938,5.8202201 Z" id="Fill-7"></path>
                                                <path d="M27.1553937,3.55721203 C26.9415274,3.3441526 26.81962,3.04763023 26.81962,2.74652971 C26.81962,2.44437271 26.9415274,2.14925899 27.1553937,1.9358474 C27.3682031,1.72208364 27.6641632,1.60023478 27.9657606,1.60023478 C28.267358,1.60023478 28.5629658,1.72208364 28.7764798,1.9358474 C28.9903462,2.14961115 29.1126059,2.44437271 29.1126059,2.74652971 C29.1126059,3.04763023 28.9903462,3.3441526 28.7764798,3.55721203 C28.5626134,3.77027146 28.267358,3.89352898 27.9657606,3.89352898 C27.6641632,3.89352898 27.3682031,3.7699193 27.1553937,3.55721203" id="Fill-8"></path>
                                                <path d="M53.7858107,3.55721203 C53.571592,3.3441526 53.4493323,3.04763023 53.4493323,2.74652971 C53.4493323,2.44437271 53.571592,2.14925899 53.7858107,1.9358474 C53.9996771,1.72208364 54.2949325,1.60023478 54.5972346,1.60023478 C54.8984796,1.60023478 55.1933827,1.72208364 55.4076014,1.9358474 C55.6204108,2.14961115 55.7430229,2.44437271 55.7430229,2.74652971 C55.7430229,3.04763023 55.6204108,3.3441526 55.4076014,3.55721203 C55.1933827,3.77027146 54.8984796,3.89352898 54.5972346,3.89352898 C54.2949325,3.89352898 53.9996771,3.7699193 53.7858107,3.55721203" id="Fill-9"></path>
                                                <path d="M5.74233009,14.4623331 C5.56898205,14.2894204 5.47173803,14.0510051 5.47173803,13.8069552 C5.47173803,13.5629054 5.56898205,13.3248423 5.74233009,13.1526339 C5.9153258,12.9800734 6.15385553,12.8811152 6.39802259,12.8811152 C6.64218965,12.8811152 6.88071938,12.9800734 7.05371509,13.1526339 C7.22635846,13.3248423 7.32465949,13.5629054 7.32465949,13.8069552 C7.32465949,14.0510051 7.22635846,14.2894204 7.05371509,14.4623331 C6.88071938,14.6341893 6.64218965,14.734204 6.39802259,14.734204 C6.15385553,14.734204 5.91567814,14.6341893 5.74233009,14.4623331" id="Fill-10"></path>
                                                <path d="M5.74233009,8.99322084 C5.57003905,8.81995598 5.47173803,8.58083639 5.47173803,8.33784299 C5.47173803,8.09344094 5.57003905,7.85502568 5.74233009,7.68246515 C5.91497347,7.51025679 6.15385553,7.41129861 6.39731792,7.41129861 C6.64218965,7.41129861 6.87966238,7.51025679 7.05371509,7.68246515 C7.22635846,7.85502568 7.32465949,8.09344094 7.32465949,8.33784299 C7.32465949,8.58083639 7.22635846,8.81995598 7.05371509,8.99322084 C6.87966238,9.16507704 6.64218965,9.26368305 6.39731792,9.26368305 C6.15385553,9.26368305 5.91497347,9.16507704 5.74233009,8.99322084" id="Fill-11"></path>
                                                <path d="M5.74268243,3.52375642 C5.57109605,3.35049156 5.47173803,3.11242847 5.47173803,2.86908291 C5.47173803,2.62432869 5.57109605,2.38591343 5.74268243,2.21264857 C5.91497347,2.04079237 6.15385553,1.94324285 6.39767026,1.94324285 C6.64218965,1.94324285 6.88071938,2.04079237 7.05301042,2.21264857 C7.22600613,2.38591343 7.32465949,2.62432869 7.32465949,2.86908291 C7.32465949,3.11242847 7.22600613,3.35049156 7.05301042,3.52375642 C6.88071938,3.69561262 6.64218965,3.7945708 6.39767026,3.7945708 C6.15385553,3.7945708 5.91497347,3.69561262 5.74268243,3.52375642" id="Fill-12"></path>
                                                <path d="M5.71837142,6.23260455 C5.55207005,6.05405723 5.46292969,5.81176816 5.47279503,5.56877476 C5.48160336,5.32296405 5.58941739,5.08912693 5.7687551,4.92290536 C5.94809281,4.75774028 6.18908887,4.66934703 6.43431293,4.67885547 C6.67671833,4.68765957 6.91242938,4.7950697 7.07732143,4.97396919 C7.2425658,5.15392517 7.33417249,5.39480558 7.32395482,5.64026412 C7.31479415,5.88325752 7.20592312,6.11744681 7.02693775,6.28366838 C6.84795237,6.44883346 6.60554697,6.53898753 6.36243691,6.53018342 C6.11791752,6.52067498 5.88396813,6.41115187 5.71837142,6.23260455" id="Fill-13"></path>
                                                <path d="M5.74268243,11.727777 C5.57109605,11.5545121 5.47173803,11.3160968 5.47173803,11.0723991 C5.47173803,10.8279971 5.57109605,10.5895818 5.74268243,10.4170213 C5.9153258,10.2448129 6.15385553,10.1458547 6.39802259,10.1458547 C6.64218965,10.1458547 6.88071938,10.2448129 7.05301042,10.4170213 C7.2256538,10.5895818 7.32465949,10.8279971 7.32465949,11.0723991 C7.32465949,11.3160968 7.2256538,11.5545121 7.05301042,11.727777 C6.88071938,11.8985767 6.64218965,11.9982392 6.39802259,11.9982392 C6.15385553,11.9982392 5.91567814,11.8989288 5.74268243,11.727777" id="Fill-14"></path>
                                                <path d="M8.47855144,8.99322084 C8.30661273,8.81995598 8.20725471,8.58083639 8.20725471,8.33784299 C8.20725471,8.09344094 8.30661273,7.85502568 8.47855144,7.68246515 C8.65154715,7.51025679 8.89007688,7.41129861 9.13424394,7.41129861 C9.37805866,7.41129861 9.61588372,7.51025679 9.78993643,7.68246515 C9.96222748,7.85502568 10.0612332,8.09344094 10.0612332,8.33784299 C10.0612332,8.58083639 9.96222748,8.81995598 9.78993643,8.99322084 C9.61588372,9.16507704 9.37805866,9.26368305 9.13424394,9.26368305 C8.89007688,9.26368305 8.65154715,9.16507704 8.47855144,8.99322084" id="Fill-15"></path>
                                                <path d="M8.47855144,6.25796038 C8.30661273,6.08610418 8.20795937,5.84733676 8.20795937,5.6039912 C8.20795937,5.35888481 8.30661273,5.12152605 8.47855144,4.94790902 C8.65154715,4.77640499 8.89113388,4.6785033 9.13424394,4.6785033 C9.37805866,4.6785033 9.61658839,4.77640499 9.78993643,4.94790902 C9.96222748,5.12152605 10.0612332,5.35888481 10.0612332,5.6039912 C10.0612332,5.84733676 9.96222748,6.08610418 9.78993643,6.25796038 C9.61658839,6.43016875 9.37805866,6.53053558 9.13424394,6.53053558 C8.89113388,6.53053558 8.65154715,6.43016875 8.47855144,6.25796038" id="Fill-16"></path>
                                                <path d="M8.47855144,11.727777 C8.3062604,11.5545121 8.20725471,11.3160968 8.20725471,11.0723991 C8.20725471,10.8279971 8.3062604,10.5895818 8.47855144,10.4170213 C8.65154715,10.2448129 8.89007688,10.1458547 9.13424394,10.1458547 C9.37876333,10.1458547 9.61694072,10.2448129 9.78993643,10.4170213 C9.96222748,10.5895818 10.0612332,10.8279971 10.0612332,11.0723991 C10.0612332,11.3160968 9.96222748,11.5545121 9.78993643,11.727777 C9.61694072,11.8985767 9.37876333,11.9982392 9.13424394,11.9982392 C8.89007688,11.9982392 8.65154715,11.8989288 8.47855144,11.727777" id="Fill-17"></path>
                                                <path d="M11.2144205,8.99322084 C11.0421294,8.81995598 10.9438284,8.58083639 10.9438284,8.33784299 C10.9438284,8.09344094 11.0421294,7.85502568 11.2144205,7.68246515 C11.3870638,7.51025679 11.6259459,7.41129861 11.8697606,7.41129861 C12.1139277,7.41129861 12.3528097,7.51025679 12.5254531,7.68246515 C12.6977442,7.85502568 12.7956928,8.09344094 12.7956928,8.33784299 C12.7956928,8.58083639 12.6977442,8.81995598 12.5254531,8.99322084 C12.3528097,9.16507704 12.1139277,9.26368305 11.8697606,9.26368305 C11.6259459,9.26368305 11.3870638,9.16507704 11.2144205,8.99322084" id="Fill-18"></path>
                                                <path d="M3.00610875,8.99322084 C2.83417004,8.81995598 2.73516435,8.58083639 2.73516435,8.33784299 C2.73516435,8.09344094 2.83417004,7.85502568 3.00610875,7.68246515 C3.17875212,7.51025679 3.41763418,7.41129861 3.66321058,7.41129861 C3.90561597,7.41129861 4.1441457,7.51025679 4.31749374,7.68246515 C4.48908012,7.85502568 4.58843814,8.09344094 4.58843814,8.33784299 C4.58843814,8.58083639 4.48908012,8.81995598 4.31749374,8.99322084 C4.1441457,9.16507704 3.90561597,9.26368305 3.66321058,9.26368305 C3.41763418,9.26368305 3.17875212,9.16507704 3.00610875,8.99322084" id="Fill-19"></path>
                                                <path d="M3.00716575,6.25796038 C2.83311304,6.08610418 2.73481201,5.84733676 2.73481201,5.6039912 C2.73481201,5.35888481 2.83311304,5.12152605 3.00716575,4.94790902 C3.17875212,4.77640499 3.41692952,4.6785033 3.66180124,4.6785033 C3.90526364,4.6785033 4.1441457,4.77640499 4.31714141,4.94790902 C4.48908012,5.12152605 4.58843814,5.35888481 4.58843814,5.6039912 C4.58843814,5.84733676 4.48908012,6.08610418 4.31714141,6.25796038 C4.1441457,6.43016875 3.90526364,6.53053558 3.66180124,6.53053558 C3.41728185,6.53053558 3.17875212,6.43016875 3.00716575,6.25796038" id="Fill-20"></path>
                                                <g id="Group-24" transform="translate(0.000000, 7.395451)">
                                                    <path d="M2.73657368,3.67694791 C2.73657368,3.43254585 2.83417004,3.19413059 3.00610875,3.02157007 C3.17875212,2.8493617 3.41728185,2.75040352 3.66250591,2.75040352 C3.90632064,2.75040352 4.14555503,2.8493617 4.31784607,3.02157007 C4.49048945,3.19413059 4.58949514,3.43254585 4.58949514,3.67694791 C4.58949514,3.92064563 4.49048945,4.1590609 4.31784607,4.33232575 C4.14555503,4.50312546 3.90632064,4.60278797 3.66250591,4.60278797 C3.41728185,4.60278797 3.17875212,4.50347762 3.00610875,4.33232575 C2.83417004,4.1590609 2.73657368,3.92064563 2.73657368,3.67694791 Z" id="Fill-21"></path>
                                                    <path d="M0.270944401,1.59776963 C0.097948691,1.42450477 0,1.18538518 0,0.942391783 C0,0.697989729 0.097948691,0.459574468 0.270944401,0.28701394 C0.44394011,0.114805576 0.682469836,0.0158473955 0.926636897,0.0158473955 C1.17009929,0.0158473955 1.40933368,0.114805576 1.58162473,0.28701394 C1.75356344,0.459574468 1.85221679,0.697989729 1.85221679,0.942391783 C1.85221679,1.18538518 1.75356344,1.42450477 1.58162473,1.59776963 C1.40933368,1.76962583 1.17009929,1.86823184 0.926636897,1.86823184 C0.682469836,1.86823184 0.44394011,1.76962583 0.270944401,1.59776963" id="Fill-23"></path>
                                                </g>
                                            </g>
                                        </g>
                                    </g>
                                </g>
                            </g>
                        </g>
                    </g>
                </g>
            </g>
        </g>
    </g>
</svg>