<?xml version="1.0" encoding="UTF-8" standalone="no"?>
<svg width="58px" height="18px" viewBox="0 0 58 18" version="1.1" xmlns="http://www.w3.org/2000/svg" xmlns:xlink="http://www.w3.org/1999/xlink">
    <!-- Generator: Sketch 39.1 (31720) - http://www.bohemiancoding.com/sketch -->
    <title>logo - Riverbed</title>
    <desc>Created with Sketch.</desc>
    <defs></defs>
    <g id="OCTOBER-GIANT-EDIT-v2-@2x-CLEAN" stroke="none" stroke-width="1" fill="none" fill-rule="evenodd">
        <g id="HOME-@2x" transform="translate(-821.000000, -510.000000)" fill="#FFFFFF">
            <g id="Masthead-Global">
                <g id="bg-copy-2-+-Nav-Copy-+-Nav-Copy-2-+-Nav-Copy-3-+-Oval-4-Copy">
                    <g id="Group-10" transform="translate(0.000000, 480.000000)">
                        <g id="Group-9">
                            <g id="LOGO-BAR">
                                <g id="LOGOS" transform="translate(28.000000, 19.000000)">
                                    <g id="Group-5" transform="translate(187.000000, 10.000000)">
                                        <g id="logo---Riverbed" transform="translate(605.879968, 1.655172)">
                                            <path d="M0.203447384,4.75359606 L2.52682834,4.75359606 L2.52682834,5.98167488 C3.48344503,5.14019704 4.25701822,4.6164532 5.60130864,4.6164532 L5.60130864,7.0755665 C5.37302175,6.98394089 5.14503057,6.93842365 4.89486126,6.93842365 C3.91547501,6.93842365 2.52682834,7.55349754 2.52682834,9.44246305 L2.52682834,16.2957635 L0.203447384,16.2957635 L0.203447384,4.75359606" id="Fill-1"></path>
                                            <path d="M6.53426867,1.24788177 C6.53426867,0.609162562 7.05678542,0.0868965517 7.6964027,0.0868965517 C8.33395003,0.0868965517 8.85853674,0.609162562 8.85853674,1.24788177 C8.85853674,1.88630542 8.33395003,2.40827586 7.6964027,2.40827586 C7.05678542,2.40827586 6.53426867,1.88630542 6.53426867,1.24788177" id="Fill-2"></path>
                                            <polygon id="Fill-3" points="6.53367725 16.2948768 8.85853674 16.2948768 8.85853674 4.75300493 6.53367725 4.75300493"></polygon>
                                            <polyline id="Fill-4" points="14.8475191 16.2957635 12.7976684 16.2957635 9.79179248 4.75330049 12.2511993 4.75330049 13.8001199 12.128867 13.8453633 12.128867 15.394284 4.75330049 17.8542822 4.75330049 14.8475191 16.2957635"></polyline>
                                            <path d="M20.4047672,9.58049261 L22.6832005,9.58049261 L22.6832005,8.25871921 C22.6832005,7.39389163 22.2496919,6.93842365 21.5432446,6.93842365 C20.8376843,6.93842365 20.4047672,7.39389163 20.4047672,8.25871921 L20.4047672,9.58049261 L20.4047672,9.58049261 Z M20.4047672,11.4008867 L20.4047672,12.9712315 C20.4047672,13.699803 20.8376843,14.1103448 21.5432446,14.1103448 C22.432144,14.1103448 22.6373657,13.4503448 22.6832005,12.9484729 L25.00599,12.9484729 C25.00599,13.9049261 24.6638554,14.7928079 24.0715514,15.4078818 C23.4570694,16.0448276 22.6134133,16.4320197 21.5432446,16.4320197 C20.1309412,16.4320197 19.0610682,15.771133 18.5140076,14.7700493 C18.1964168,14.1780296 18.0819777,13.3590148 18.0819777,12.4265025 L18.0819777,8.62256158 C18.0819777,7.69004926 18.1964168,6.87014778 18.5140076,6.27783251 C19.0610682,5.27674877 20.1309412,4.6164532 21.5432446,4.6164532 C23.685652,4.6164532 25.00599,6.1870936 25.00599,8.2137931 L25.00599,11.4008867 L20.4047672,11.4008867 L20.4047672,11.4008867 Z" id="Fill-5"></path>
                                            <path d="M25.9543269,4.75359606 L28.2777078,4.75359606 L28.2777078,5.98167488 C29.2349159,5.14019704 30.0078977,4.6164532 31.3524838,4.6164532 L31.3524838,7.0755665 C31.1247884,6.98394089 30.8965015,6.93842365 30.6466279,6.93842365 C29.667833,6.93842365 28.2777078,7.55349754 28.2777078,9.44246305 L28.2777078,16.2957635 L25.9543269,16.2957635 L25.9543269,4.75359606" id="Fill-6"></path>
                                            <path d="M36.9094362,8.30482759 C36.9094362,7.57684729 36.6586755,6.93842365 35.7709588,6.93842365 C35.1103463,6.93842365 34.6097119,7.46187192 34.6097119,8.19014778 L34.6097119,12.6759606 C34.6097119,13.5186207 35.0651029,14.1103448 35.7709588,14.1103448 C36.5684844,14.1103448 36.9094362,13.4725123 36.9094362,12.5388177 L36.9094362,8.30482759 L36.9094362,8.30482759 Z M32.2869224,0.0866009852 L34.6097119,0.0866009852 L34.6097119,5.80019704 L34.6555467,5.80019704 C35.1552939,5.048867 35.8845109,4.6155665 36.7952928,4.6155665 C37.9118877,4.6155665 38.4820135,5.048867 38.8682087,5.66394089 C39.1639171,6.14157635 39.2328172,6.80216749 39.2328172,8.4644335 L39.2328172,12.857734 C39.2328172,14.1322167 39.1192651,14.8386207 38.8448477,15.3390148 C38.435883,16.0903448 37.7522052,16.4320197 36.8186537,16.4320197 C35.6568154,16.4320197 35.2017202,15.908867 34.6097119,15.2482759 L34.6097119,16.2957635 L32.2869224,16.2957635 L32.2869224,0.0866009852 L32.2869224,0.0866009852 Z" id="Fill-7"></path>
                                            <path d="M42.4965509,9.58049261 L44.7749841,9.58049261 L44.7749841,8.25871921 C44.7749841,7.39389163 44.3408842,6.93842365 43.6347325,6.93842365 C42.9291723,6.93842365 42.4965509,7.39389163 42.4965509,8.25871921 L42.4965509,9.58049261 L42.4965509,9.58049261 Z M42.4965509,11.4008867 L42.4965509,12.9712315 C42.4965509,13.699803 42.9291723,14.1103448 43.6347325,14.1103448 C44.5242234,14.1103448 44.7297407,13.4503448 44.7749841,12.9484729 L47.0980694,12.9484729 C47.0980694,13.9049261 46.7565262,14.7928079 46.1633351,15.4078818 C45.548853,16.0448276 44.7066755,16.4320197 43.6347325,16.4320197 C42.2230206,16.4320197 41.1528519,15.771133 40.6063827,14.7700493 C40.2873133,14.1780296 40.1737613,13.3590148 40.1737613,12.4265025 L40.1737613,8.62256158 C40.1737613,7.69004926 40.2873133,6.87014778 40.6063827,6.27783251 C41.1528519,5.27674877 42.2230206,4.6164532 43.6347325,4.6164532 C45.7762528,4.6164532 47.0980694,6.1870936 47.0980694,8.2137931 L47.0980694,11.4008867 L42.4965509,11.4008867 L42.4965509,11.4008867 Z" id="Fill-8"></path>
                                            <path d="M50.3662387,12.5388177 C50.3662387,13.4725123 50.7074862,14.1103448 51.5041246,14.1103448 C52.2111634,14.1103448 52.6668501,13.5186207 52.6668501,12.6753695 L52.6668501,8.18985222 C52.6668501,7.46098522 52.1644415,6.93812808 51.5041246,6.93812808 C50.6172951,6.93812808 50.3662387,7.57596059 50.3662387,8.30482759 L50.3662387,12.5388177 L50.3662387,12.5388177 Z M52.6668501,15.2482759 C52.0748419,15.9076847 51.6185638,16.4320197 50.4558383,16.4320197 C49.5225826,16.4320197 48.8403833,16.0903448 48.4308272,15.3390148 C48.1561141,14.8386207 48.0428577,14.1328079 48.0428577,12.8583251 L48.0428577,8.4644335 C48.0428577,6.80216749 48.1117578,6.14187192 48.4065791,5.66364532 C48.7939571,5.04916256 49.3637872,4.61615764 50.4806778,4.61615764 C51.3896855,4.61615764 52.1194938,5.04916256 52.6198325,5.79990148 L52.6668501,5.79990148 L52.6668501,0.0863054187 L54.9890482,0.0863054187 L54.9890482,16.2948768 L52.6668501,16.2948768 L52.6668501,15.2482759 L52.6668501,15.2482759 Z" id="Fill-9"></path>
                                            <path d="M55.410137,1.11073892 C55.410137,1.69389163 55.882679,2.16591133 56.4655203,2.16591133 C57.048953,2.16591133 57.521495,1.69389163 57.521495,1.11073892 C57.521495,0.52817734 57.048953,0.0561576355 56.4655203,0.0561576355 C55.882679,0.0561576355 55.410137,0.52817734 55.410137,1.11073892 L55.410137,1.11073892 Z M57.3127249,1.11073892 C57.3127249,1.58600985 56.9315567,1.97408867 56.4655203,1.97408867 C55.9988924,1.97408867 55.6197942,1.58600985 55.6197942,1.11073892 C55.6197942,0.635763547 55.9988924,0.247684729 56.4655203,0.247684729 C56.9315567,0.247684729 57.3127249,0.635763547 57.3127249,1.11073892 L57.3127249,1.11073892 Z M56.0660182,1.72640394 L56.2588201,1.72640394 L56.2588201,1.19231527 L56.40697,1.19231527 L56.7600459,1.72640394 L56.9933598,1.72640394 L56.640284,1.18669951 C56.812682,1.16600985 56.9555091,1.07349754 56.9555091,0.843251232 C56.9555091,0.609458128 56.815639,0.496551724 56.5323504,0.496551724 L56.0660182,0.496551724 L56.0660182,1.72640394 L56.0660182,1.72640394 Z M56.2588201,0.670935961 L56.5391517,0.670935961 C56.6704462,0.670935961 56.7632986,0.720295567 56.7632986,0.833793103 C56.7632986,0.965320197 56.6668977,1.01793103 56.4773486,1.01793103 L56.2588201,1.01793103 L56.2588201,0.670935961 L56.2588201,0.670935961 Z" id="Fill-10"></path>
                                        </g>
                                    </g>
                                </g>
                            </g>
                        </g>
                    </g>
                </g>
            </g>
        </g>
    </g>
</svg>