<?xml version="1.0" encoding="UTF-8" standalone="no"?>
<svg width="70px" height="15px" viewBox="0 0 70 15" version="1.1" xmlns="http://www.w3.org/2000/svg" xmlns:xlink="http://www.w3.org/1999/xlink">
    <!-- Generator: Sketch 39.1 (31720) - http://www.bohemiancoding.com/sketch -->
    <title>logo - TIBCO</title>
    <desc>Created with Sketch.</desc>
    <defs></defs>
    <g id="OCTOBER-GIANT-EDIT-v2-@2x-CLEAN" stroke="none" stroke-width="1" fill="none" fill-rule="evenodd">
        <g id="HOME-@2x" transform="translate(-1108.000000, -513.000000)" fill="#FFFFFF">
            <g id="Masthead-Global">
                <g id="bg-copy-2-+-Nav-Copy-+-Nav-Copy-2-+-Nav-Copy-3-+-Oval-4-Copy">
                    <g id="Group-10" transform="translate(0.000000, 480.000000)">
                        <g id="Group-9">
                            <g id="LOGO-BAR">
                                <g id="LOGOS" transform="translate(28.000000, 19.000000)">
                                    <g id="Group-5" transform="translate(187.000000, 10.000000)">
                                        <g id="logo---TIBCO" transform="translate(893.079696, 4.137931)">
                                            <polyline id="Fill-1" points="21.1688257 14.6264396 21.1688257 1.48283506 16.9024161 1.48283506 16.9024161 0.245523889 26.7959614 0.245523889 26.7959614 1.48283506 22.5909622 1.48283506 22.5909622 14.6264396 21.1688257 14.6264396"></polyline>
                                            <polygon id="Fill-2" points="28.8919968 14.6264396 30.2931245 14.6264396 30.2931245 0.245523889 28.8919968 0.245523889"></polygon>
                                            <path d="M33.2295133,14.6264396 L33.2295133,0.245523889 L36.568302,0.245523889 C39.6194313,0.245523889 41.2064064,1.37945658 41.2064064,3.85084836 C41.2064064,5.58243789 40.5050345,6.65337432 38.5059631,7.08627171 C40.7118908,7.51916909 41.6589044,8.94062318 41.6589044,10.5268367 C41.6589044,13.2243689 39.6194313,14.6264396 36.1562056,14.6264396 L33.2295133,14.6264396 M34.6516498,13.3907437 L36.1982233,13.3907437 C38.6918104,13.3907437 40.215759,12.4635679 40.215759,10.6495987 C40.215759,8.65310179 38.856649,7.76469298 36.3000353,7.76469298 L34.6516498,7.76469298 L34.6516498,13.3907437 M34.6936675,6.52899709 L36.3000353,6.52899709 C38.5253558,6.52899709 39.7842699,5.62282011 39.7842699,3.81046614 C39.7842699,2.24525135 38.6497928,1.48283506 36.6717301,1.48283506 L34.6936675,1.48283506 L34.6936675,6.52899709" id="Fill-3"></path>
                                            <path d="M42.9792289,7.43678936 C42.9792289,3.00605235 45.8849124,0 50.1723309,0 C51.6364851,0 52.7693462,0.206756959 53.5321285,0.51366182 L53.4303165,1.85435147 C52.5220884,1.4198388 51.3682185,1.2340806 50.2143486,1.2340806 C46.6687036,1.2340806 44.4013655,3.70708766 44.4013655,7.43678936 C44.4013655,11.227872 46.6072932,13.6378828 50.2143486,13.6378828 C51.4506378,13.6378828 52.7289446,13.4521246 53.4497092,13.017612 L53.5321285,14.2565384 C52.6465253,14.6878205 51.4910394,14.8735787 50.2353574,14.8735787 C45.7814843,14.8735787 42.9792289,11.9692896 42.9792289,7.43678936" id="Fill-4"></path>
                                            <path d="M53.7810024,7.43678936 C53.7810024,2.90428916 56.1937863,0 60.1305189,0 C64.0672514,0 66.4590265,2.90428916 66.4590265,7.43678936 C66.4590265,11.9692896 64.0672514,14.8735787 60.1305189,14.8735787 C56.1937863,14.8735787 53.7810024,11.9692896 53.7810024,7.43678936 M55.204755,7.43678936 C55.204755,11.0614973 57.1828177,13.6378828 60.1305189,13.6378828 C63.0378185,13.6378828 65.03689,11.0614973 65.03689,7.43678936 C65.03689,3.81046614 63.0378185,1.2340806 60.1305189,1.2340806 C57.1828177,1.2340806 55.204755,3.81046614 55.204755,7.43678936" id="Fill-5"></path>
                                            <path d="M8.90792575,6.67598837 C8.90792575,6.67598837 10.0718511,5.38932115 8.72638786,3.19414375 C8.72638786,3.19414375 7.3846954,1.19710843 6.3026506,0.228114666 L0,0.228114666 L0,14.5663149 L2.46306149,14.5663149 C3.05543882,13.8697665 6.75730335,9.5162044 7.20154145,8.92500872 C7.20154145,8.92500872 8.57034788,7.28979809 8.90792575,6.67598837" id="Fill-7"></path>
                                            <path d="M9.66729639,6.92151226 C10.890657,4.79417698 9.05319197,2.75245201 9.05319197,2.75245201 C8.28879357,1.73158953 7.1300755,0.542737017 6.8181751,0.227755713 L8.5861494,0.227755713 C11.5500112,2.80252597 12.4097574,3.85730951 12.4097574,3.85730951 C14.0209735,5.91680266 13.5199936,7.36894724 13.5199936,7.36894724 C13.1951647,8.58041379 12.1883566,10.1553203 12.1883566,10.1553203 C11.8263582,10.8450486 9.71093012,13.9447877 9.28590522,14.5650586 L3.69917108,14.5650586 C8.94168353,8.11359535 9.66729639,6.92151226 9.66729639,6.92151226 Z" id="Fill-9"></path>
                                            <path d="M10.4817928,14.5650586 C14.0743036,8.94223847 14.1777317,7.74207894 14.1777317,7.74207894 C14.8096129,5.31591525 12.6198458,3.20311757 12.6198458,3.20311757 C11.8085815,2.33732281 9.65275181,0.636423764 9.13076305,0.227755713 L14.8322378,0.227755713 L14.8322378,14.5650586 L10.4817928,14.5650586" id="Fill-10"></path>
                                            <path d="M68.4661783,2.67653344 C68.4290088,2.62645949 68.3789108,2.47300706 68.3158843,2.25171251 C68.2480096,2.00618862 68.1219566,1.91411716 67.8520739,1.90604071 L67.5724948,1.90604071 L67.5724948,2.67653344 L67.275139,2.67653344 L67.275139,0.92394516 C67.4254329,0.899715829 67.6436016,0.883562941 67.8456096,0.883562941 C68.1623582,0.883562941 68.3708305,0.932021604 68.5146602,1.03216951 C68.6277847,1.10808808 68.6956594,1.23085002 68.6956594,1.36976485 C68.6956594,1.60236643 68.5001157,1.75743415 68.2625542,1.8220457 L68.2625542,1.82850686 C68.4354731,1.87696552 68.5421333,2.00295804 68.6003116,2.18871624 C68.6692637,2.41772829 68.7215165,2.5828467 68.7647911,2.65984213 C68.7586859,2.6654059 68.7524012,2.67096967 68.7462961,2.67653344 L68.4661783,2.67653344 M67.5724948,1.08547403 L67.5724948,1.73158953 L67.8763149,1.73158953 C68.1946795,1.73158953 68.3950715,1.59752057 68.3950715,1.39399418 C68.3950715,1.16462318 68.1801349,1.06447528 67.8666185,1.06447528 C67.7227888,1.06447528 67.6242088,1.07416701 67.5724948,1.08547403" id="Fill-30"></path>
                                            <path d="M66.4590265,1.76551059 C66.4590265,0.948174491 67.1232289,0.28267553 67.9425735,0.28267553 C68.760302,0.28267553 69.4261205,0.948174491 69.4261205,1.76551059 C69.4261205,2.58446199 68.760302,3.24834566 67.9425735,3.24834566 C67.1232289,3.24834566 66.4590265,2.58446199 66.4590265,1.76551059 M66.7272932,1.76551059 C66.7272932,2.43585542 67.2719068,2.98182302 67.9425735,2.98182302 C68.6116241,2.98182302 69.1578538,2.43585542 69.1578538,1.76551059 C69.1578538,1.09678106 68.6116241,0.550813461 67.9425735,0.550813461 C67.2719068,0.550813461 66.7272932,1.09678106 66.7272932,1.76551059" id="Fill-31"></path>
                                        </g>
                                    </g>
                                </g>
                            </g>
                        </g>
                    </g>
                </g>
            </g>
        </g>
    </g>
</svg>