<?xml version="1.0" encoding="UTF-8" standalone="no"?>
<svg width="60px" height="13px" viewBox="0 0 60 13" version="1.1" xmlns="http://www.w3.org/2000/svg" xmlns:xlink="http://www.w3.org/1999/xlink">
    <!-- Generator: Sketch 39.1 (31720) - http://www.bohemiancoding.com/sketch -->
    <title>logo - UBER</title>
    <desc>Created with Sketch.</desc>
    <defs></defs>
    <g id="OCTOBER-GIANT-EDIT-v2-@2x-CLEAN" stroke="none" stroke-width="1" fill="none" fill-rule="evenodd">
        <g id="HOME-@2x" transform="translate(-539.000000, -513.000000)" fill="#FFFFFF">
            <g id="Masthead-Global">
                <g id="bg-copy-2-+-Nav-Copy-+-Nav-Copy-2-+-Nav-Copy-3-+-Oval-4-Copy">
                    <g id="Group-10" transform="translate(0.000000, 480.000000)">
                        <g id="Group-9">
                            <g id="LOGO-BAR">
                                <g id="LOGOS" transform="translate(28.000000, 19.000000)">
                                    <g id="Group-5" transform="translate(187.000000, 10.000000)">
                                        <g id="logo---UBER" transform="translate(324.131335, 4.137931)">
                                            <g id="uber_logo">
                                                <g id="Boostrap3-grid-system-layouts">
                                                    <g id="Artboard-8-Copy">
                                                        <path d="M9.34252831,0.296303494 L9.34252831,7.13579053 C9.35094501,8.27150435 9.0837177,9.09593615 8.54083838,9.60911056 C7.99795907,10.122285 7.13946499,10.3788683 5.96533058,10.3788683 C4.79119617,10.3788683 3.93270209,10.122285 3.38982277,9.60911056 C2.84694346,9.09593615 2.57971615,8.27150435 2.58813284,7.13579053 L2.58813284,0.00606695925 L0.303000918,0.00606695925 C0.10099928,-0.00234579652 0,0.0943987917 0,0.296303494 L0,7.24936135 C0.0252501792,9.13380499 0.576538077,10.4693003 1.65388001,11.2558874 C2.73122195,12.0424744 4.1662537,12.4231432 5.95901806,12.3979051 C7.75178242,12.4231432 9.18891824,12.0424744 10.2704686,11.2558874 C11.352019,10.4693003 11.905411,9.13380499 11.9306612,7.24936135 L11.9306612,0.00606695925 L9.64552923,0.00606695925 C9.44352759,-0.00234579652 9.34252831,0.0943987917 9.34252831,0.296303494 L9.34252831,0.296303494 L9.34252831,0.296303494 Z M42.4453786,1.98724678 C42.5379628,1.98724678 42.6095039,1.97042158 42.6600043,1.93677086 C42.7105046,1.90312005 42.7525877,1.85264464 42.7862547,1.78534311 L43.4427567,0.144875737 C43.4764236,0.0523360388 43.4427572,0.00606695925 43.3417564,0.00606695925 L34.1507285,0.00606695925 C33.7298917,0.00606695925 33.4268939,0.0733674665 33.2417257,0.207970636 C33.0565576,0.342573702 32.9639749,0.557094203 32.9639749,0.851538604 L32.9639749,11.4641006 C32.9639749,11.7080687 33.0334119,11.888939 33.172288,12.0067167 C33.3111642,12.1244944 33.544725,12.1833824 33.8729777,12.1833824 L42.4453786,12.1833824 C42.5379628,12.1833824 42.6095039,12.1665572 42.6600043,12.1329065 C42.7105046,12.0992557 42.7525877,12.0487803 42.7862547,11.9814788 L43.4427567,10.3536304 C43.4764236,10.252678 43.4427572,10.2022026 43.3417564,10.2022026 L35.5142326,10.2022026 L35.5142326,8.04435707 C35.5058159,7.67419848 35.6194402,7.40078992 35.8551087,7.22412339 C36.0907772,7.04745675 36.4821495,6.95912481 37.0292372,6.95912481 L40.4253725,6.95912481 C40.5179566,6.95912481 40.5894978,6.94229961 40.6399982,6.90864889 C40.6904985,6.87499807 40.7325816,6.82452267 40.7662485,6.75722113 L41.3975005,5.19246764 C41.4311674,5.09151529 41.397501,5.04103989 41.2965002,5.04103989 L35.5142326,5.04103989 L35.5142326,1.98724678 L42.4453786,1.98724678 L42.4453786,1.98724678 Z M26.2600796,5.76032173 C26.7566669,5.49952815 27.1164769,5.13778765 27.3395204,4.67508947 C27.5625638,4.21239119 27.6740839,3.6866056 27.6740839,3.097717 C27.6320002,1.78533654 27.1711909,0.931460758 26.2916422,0.536064109 C25.4120934,0.140667358 24.3831631,-0.0359965118 23.2048203,0.00606695925 L18.0159296,0.00606695925 C17.5866761,0.00606695925 17.27947,0.0733674665 17.0943018,0.207970636 C16.9091337,0.342573702 16.8207593,0.557094203 16.829176,0.851538604 L16.829176,11.4641006 C16.829176,11.7080687 16.898613,11.888939 17.0374891,12.0067167 C17.1763653,12.1244944 17.4099261,12.1833824 17.7381788,12.1833824 L24.1264481,12.1833824 C25.3552913,12.1917951 26.3442428,11.9331086 27.0933321,11.4073152 C27.8424214,10.8815217 28.2295854,10.0171302 28.2548356,8.81411484 C28.2548356,8.07379766 28.0928159,7.42813289 27.7687717,6.87710144 C27.4447274,6.32606989 26.941835,5.95381368 26.2600796,5.76032173 L26.2600796,5.76032173 L26.2600796,5.76032173 Z M19.3415586,1.93677086 L23.3941959,1.93677086 C24.0507012,1.93677086 24.5030939,2.06506249 24.7513875,2.32164975 C24.9996812,2.5782369 25.1196178,2.97152454 25.1112011,3.50152435 C25.1196178,4.03152407 24.9996812,4.42691487 24.7513875,4.68770845 C24.5030939,4.94850193 24.0507012,5.07889683 23.3941959,5.07889683 L19.3415586,5.07889683 L19.3415586,1.93677086 L19.3415586,1.93677086 Z M23.8613223,10.2526785 L19.3415586,10.2526785 L19.3415586,7.99388115 C19.3331419,7.62372256 19.4488702,7.350314 19.6887472,7.17364747 C19.9286241,6.99698083 20.3221005,6.90864889 20.8691882,6.90864889 L23.8613223,6.90864889 C24.5683279,6.90864889 25.0543871,7.04745623 25.3195142,7.32507522 C25.5846414,7.60269411 25.7087863,8.02332256 25.6919529,8.5869732 C25.7087863,9.14221108 25.5846414,9.55863321 25.3195142,9.8362522 C25.0543871,10.1138711 24.5683279,10.2526785 23.8613223,10.2526785 L23.8613223,10.2526785 L23.8613223,10.2526785 Z M59.38818,11.9688598 L56.6485467,7.28721828 C57.3471356,7.12737705 57.9278815,6.7803586 58.390802,6.24615245 C58.8537224,5.71194631 59.0935957,4.88120512 59.1104291,3.75390395 C59.0935957,2.30692032 58.6601403,1.3142372 57.8100502,0.775824725 C56.9599601,0.237412152 55.76901,-0.0191712055 54.2371644,0.00606695925 L49.0230236,0.00606695925 C48.6021868,0.00606695925 48.299189,0.0733674665 48.1140208,0.207970636 C47.9288527,0.342573702 47.83627,0.557094203 47.83627,0.851538604 L47.83627,11.8931459 C47.83627,12.0866378 47.9372693,12.1833824 48.1392709,12.1833824 L50.3612776,12.1833824 L50.3612776,8.62483014 C50.3528609,8.25467155 50.4685892,7.98126299 50.7084662,7.80459645 C50.9483431,7.62792981 51.3418195,7.53959788 51.8889073,7.53959788 L54.1487891,7.53959788 L56.6106716,11.9814788 C56.6443385,12.0487803 56.6864216,12.0992557 56.7369219,12.1329065 C56.7874223,12.1665572 56.8589635,12.1833824 56.9515476,12.1833824 L59.2745546,12.1833824 C59.3503053,12.1749697 59.3944924,12.1476289 59.4071175,12.1013591 C59.4197427,12.0550892 59.4134302,12.0109232 59.38818,11.9688598 L59.38818,11.9688598 L59.38818,11.9688598 Z M54.6159155,5.64675091 L50.3612776,5.64675091 L50.3612776,1.96200882 L54.6159155,1.96200882 C55.3902551,1.96200882 55.9099806,2.1155382 56.1751077,2.42260158 C56.4402349,2.72966496 56.5643799,3.19025311 56.5475464,3.80437987 C56.5643799,4.42691928 56.4402349,4.88961059 56.1751077,5.19246764 C55.9099806,5.49532459 55.3902551,5.64675091 54.6159155,5.64675091 L54.6159155,5.64675091 L54.6159155,5.64675091 Z" id="logo"></path>
                                                    </g>
                                                </g>
                                            </g>
                                        </g>
                                    </g>
                                </g>
                            </g>
                        </g>
                    </g>
                </g>
            </g>
        </g>
    </g>
</svg>