<?xml version="1.0" encoding="UTF-8" standalone="no"?>
<svg width="42px" height="23px" viewBox="0 0 42 23" version="1.1" xmlns="http://www.w3.org/2000/svg" xmlns:xlink="http://www.w3.org/1999/xlink">
    <!-- Generator: Sketch 39.1 (31720) - http://www.bohemiancoding.com/sketch -->
    <title>logo - RH</title>
    <desc>Created with Sketch.</desc>
    <defs>
        <polygon id="path-1" points="-1.13686838e-13 23.1492414 41.1160066 23.1492414 41.1160066 0.330593103 -1.13686838e-13 0.330593103"></polygon>
    </defs>
    <g id="OCTOBER-GIANT-EDIT-v2-@2x-CLEAN" stroke="none" stroke-width="1" fill="none" fill-rule="evenodd">
        <g id="HOME-@2x" transform="translate(-912.000000, -510.000000)">
            <g id="Masthead-Global">
                <g id="bg-copy-2-+-Nav-Copy-+-Nav-Copy-2-+-Nav-Copy-3-+-Oval-4-Copy">
                    <g id="Group-10" transform="translate(0.000000, 480.000000)">
                        <g id="Group-9">
                            <g id="LOGO-BAR">
                                <g id="LOGOS" transform="translate(28.000000, 19.000000)">
                                    <g id="Group-5" transform="translate(187.000000, 10.000000)">
                                        <g id="logo---RH" transform="translate(697.503607, 0.827586)">
                                            <mask id="mask-2" fill="white">
                                                <use xlink:href="#path-1"></use>
                                            </mask>
                                            <g id="Clip-2"></g>
                                            <path d="M15.3818918,14.1722483 L14.6322907,13.4230069 L14.6373138,13.4214621 L13.5449827,12.329269 C12.275684,11.0594207 11.4646465,10.3024552 10.463504,9.51922759 C12.6813959,8.8704 14.0604301,7.16877241 14.0604301,5.14118621 C14.0604301,2.38444138 11.8162635,0.330593103 6.81441492,0.330593103 C5.05594348,0.330593103 4.51615342,0.356855172 3.40720746,0.410924138 C2.29826151,0.465765517 0.649139095,0.574675862 -1.13686838e-13,0.574675862 L-1.13686838e-13,1.08833103 L0.59504417,1.08833103 C2.16379698,1.08833103 2.62360384,1.5737931 2.62360384,3.24993103 L2.62360384,14.6268138 C2.62360384,16.4365793 2.05599353,16.8702897 0.459420466,16.8702897 L-1.13686838e-13,16.8702897 L-1.13686838e-13,17.3831724 L7.65172708,17.3831724 L7.65172708,16.8702897 L7.03002184,16.8702897 C5.51536395,16.8702897 4.86738403,16.4643862 4.86738403,14.8430897 L4.86738403,10.2765793 C5.29975704,10.3024552 5.65137405,10.3306483 6.24641822,10.3306483 C6.97631331,10.3306483 7.40791353,10.3024552 8.08525926,10.2765793 C8.73285278,10.7083586 9.68028675,11.4912 10.8692159,12.6814897 L12.5766836,14.3877517 L12.5735924,14.3892966 C14.839397,16.6393379 16.1229923,17.5975172 20.7094691,17.3874207 L20.6971045,16.8718345 C18.6148363,16.7358897 16.9784649,15.7661241 15.3818918,14.1722483 L15.3818918,14.1722483 Z M6.54278112,9.8169931 C5.92107588,9.8169931 5.51536395,9.84286897 4.86738403,9.76292414 L4.86738403,0.899089655 C5.35346557,0.844634483 5.70546897,0.844634483 6.21898436,0.844634483 C10.3831344,0.844634483 11.518355,2.79034483 11.518355,5.3030069 C11.518355,8.54637241 9.54427665,9.8169931 6.54278112,9.8169931 L6.54278112,9.8169931 Z M36.4383412,9.36513103 L36.4383412,14.8508138 C36.4383412,16.2562207 36.0596767,16.8776276 34.3027508,16.8776276 L33.4642795,16.8776276 L33.4642795,17.3905103 L41.1160066,17.3905103 L41.1160066,16.8776276 L40.845532,16.8776276 C39.223457,16.8776276 38.6825078,16.4446897 38.6825078,14.5264 L38.6825078,3.31211034 C38.6825078,1.63597241 39.1148808,1.14973793 40.7373421,1.09566897 L40.7373421,0.582013793 L33.7888491,0.582013793 L33.7888491,1.09566897 L34.3027508,1.09566897 C35.9789207,1.09566897 36.4383412,1.63597241 36.4383412,3.0688 L36.4383412,8.39188966 L25.8399863,8.39188966 L25.8399863,3.68982069 C25.8399863,1.60893793 26.1641694,1.09566897 28.0841529,1.09566897 L28.0841529,0.582013793 L21.6491752,0.582013793 L21.6491752,1.09566897 C23.1363992,1.2038069 23.5958197,1.60893793 23.5958197,3.01511724 L23.5958197,14.905269 C23.5958197,16.4446897 23.0552568,16.8776276 21.459843,16.8776276 L21.2975582,16.8776276 L21.2975582,17.3905103 L28.0841529,17.3905103 L28.0841529,16.8776276 L28.0030105,16.8776276 C26.1912169,16.8776276 25.8399863,16.2562207 25.8399863,14.4993655 L25.8399863,9.36513103 L36.4383412,9.36513103 L36.4383412,9.36513103 Z M0.593884993,22.144331 C0.65338941,22.1474207 0.675413772,22.1474207 0.751146667,22.1474207 C0.854699808,22.1474207 0.886383978,22.1474207 0.96829915,22.1362207 C1.02780357,22.1810207 1.04364565,22.1987862 1.12826557,22.2876138 C1.22911396,22.3915034 1.29518705,22.4695172 1.42424209,22.6166621 C1.66612368,22.9051586 1.68273855,22.9264 1.80445213,23.0171586 C1.93080241,23.1090759 2.09385997,23.1144828 2.36085706,23.1144828 C2.40181465,23.1144828 2.42074787,23.1106207 2.47097888,23.1106207 L2.47097888,23.0441931 C2.38288143,23.036469 2.35776593,23.0337655 2.30135265,23.0109793 C2.1379087,22.9592276 1.98026063,22.8676966 1.7604034,22.6058483 L1.60314173,22.420469 C1.45553986,22.2432 1.36087374,22.144331 1.2476608,22.0361931 C1.50267973,21.9481379 1.66303254,21.714869 1.66303254,21.4375724 C1.66303254,21.270731 1.60314173,21.1162483 1.49958859,21.0046345 C1.35160033,20.8459034 1.14410765,20.7829517 0.77664856,20.7829517 C0.603544801,20.7829517 0.254246145,20.7976276 0.0529357476,20.8126897 L0.0282066392,20.8161655 L0.0282066392,20.8822069 L0.0502310014,20.8822069 C0.307181893,20.8822069 0.333070178,20.9200552 0.333070178,21.2792276 L0.333070178,22.7719172 C0.32997904,22.9800828 0.270474623,23.0411034 0.0815287791,23.0411034 L0.0247291084,23.0411034 L0.0247291084,23.1129379 L0.917681756,23.1129379 L0.917681756,23.0411034 L0.845426392,23.0411034 C0.657253333,23.0411034 0.596976132,22.9800828 0.596976132,22.7719172 L0.593884993,22.6460138 L0.593884993,22.144331 L0.593884993,22.144331 Z M0.593884993,20.8574897 C0.650684664,20.8493793 0.691255857,20.8459034 0.748055528,20.8459034 C1.16304088,20.8459034 1.36744241,21.0490483 1.36744241,21.4630621 C1.36744241,21.685131 1.29170952,21.8770759 1.17231429,21.9701517 C1.07185229,22.0477793 0.942797257,22.0809931 0.748055528,22.0809931 C0.681982442,22.0809931 0.657253333,22.0809931 0.593884993,22.0728828 L0.593884993,20.8574897 L0.593884993,20.8574897 Z M3.93926968,21.7368828 L3.8882659,21.7368828 C3.86276401,21.9655172 3.84344439,21.9852138 3.62358716,21.9852138 L3.21748883,21.9852138 L3.21748883,21.1637517 L3.70820708,21.1637517 C3.94777032,21.1637517 3.98718233,21.2066207 4.02118486,21.5109517 L4.07141586,21.5109517 L4.0490051,21.0536828 L2.6958592,21.0536828 L2.6958592,21.1131586 L2.75806837,21.1131586 C2.95512845,21.1131586 2.98372148,21.1598897 2.98372148,21.4715586 L2.98372148,22.6950621 C2.98372148,23.0059586 2.95010535,23.0488276 2.70745097,23.0488276 L2.63983232,23.0488276 L2.63983232,23.1129379 L4.13942091,23.1129379 L4.18153767,22.6185931 L4.13092027,22.6185931 C4.10850952,22.7348414 4.06600636,22.8472276 4.02118486,22.9070897 C3.97018107,22.9800828 3.91956368,22.9928276 3.71361657,22.9928276 L3.34693026,22.9928276 C3.31911001,22.9928276 3.29360812,22.9866483 3.27119737,22.9735172 C3.22598947,22.9460966 3.21748883,22.9070897 3.21748883,22.7108966 L3.21748883,22.1045517 L3.61508653,22.1045517 C3.8376485,22.1045517 3.86276401,22.1277241 3.8882659,22.3667862 L3.93926968,22.3667862 L3.93926968,21.7368828 L3.93926968,21.7368828 Z M4.61043314,22.6081655 C4.66066414,22.7970207 4.71437267,22.8935724 4.8186986,22.9793103 C4.90061377,23.0457379 4.98214255,23.0758621 5.08646848,23.0758621 C5.30362096,23.0758621 5.47556554,22.9090207 5.47556554,22.6950621 C5.47556554,22.6081655 5.44465416,22.5116138 5.39674151,22.4459586 C5.35732949,22.3895724 5.3067121,22.3405241 5.24759407,22.2934069 C5.21359155,22.2667586 5.16258776,22.2273655 5.09496911,22.1775448 C4.90834162,22.0385103 4.80710683,21.952 4.7282828,21.8658759 C4.62704801,21.7604414 4.57024834,21.6237241 4.57024834,21.4819862 C4.57024834,21.2027586 4.78508247,21.0007724 5.07217196,21.0007724 C5.16838365,21.0007724 5.24759407,21.0142897 5.35153361,21.0536828 C5.41065163,21.0776276 5.43615353,21.0838069 5.45585953,21.0838069 C5.47556554,21.0838069 5.48677092,21.0776276 5.50647693,21.0536828 L5.55168483,21.0536828 L5.59998387,21.4715586 L5.55168483,21.4715586 C5.4724744,21.233269 5.2916428,21.0776276 5.09767385,21.0776276 C4.91181915,21.0776276 4.78160494,21.2066207 4.78160494,21.3885241 C4.78160494,21.4819862 4.82449449,21.5808552 4.89211314,21.6577103 C4.96784604,21.7430621 4.98793844,21.7604414 5.20238617,21.9187862 C5.39326398,22.0582069 5.47556554,22.1315862 5.55438957,22.2273655 C5.64171424,22.3328 5.68692214,22.4590897 5.68692214,22.5985103 C5.68692214,22.9229241 5.44194941,23.1654621 5.10887923,23.1654621 C5.02155457,23.1654621 4.93113877,23.1453793 4.80169734,23.0994207 C4.74567045,23.0824276 4.73137394,23.0758621 4.71437267,23.0758621 C4.69196192,23.0758621 4.6780518,23.0886069 4.66375528,23.1129379 L4.61584263,23.1129379 L4.55672461,22.6081655 L4.61043314,22.6081655 L4.61043314,22.6081655 Z M6.42261311,23.1129379 L7.29972368,23.1129379 L7.29972368,23.0488276 L7.20660313,23.0488276 C7.04006804,23.0488276 6.9867459,22.9928276 6.98404115,22.8066759 L6.98404115,21.1691586 L7.47707775,21.1691586 C7.59260905,21.1691586 7.63743056,21.2521931 7.68302486,21.5376 L7.73055111,21.5376 L7.68843435,20.9976828 L7.63743056,20.9976828 C7.61772455,21.0498207 7.60961032,21.0536828 7.46819073,21.0536828 L6.26187391,21.0536828 C6.12084071,21.0536828 6.11272647,21.0498207 6.09263407,20.9976828 L6.04201668,20.9976828 L5.99951353,21.5376 L6.04819896,21.5376 C6.09263407,21.2521931 6.13784198,21.1691586 6.25337328,21.1691586 L6.74679627,21.1691586 L6.74679627,22.8066759 C6.74409152,22.9928276 6.6899966,23.0488276 6.52423429,23.0488276 L6.42261311,23.0488276 L6.42261311,23.1129379 L6.42261311,23.1129379 Z M7.88278968,22.1203862 C7.88278968,22.7108966 8.32250414,23.1650759 8.89745591,23.1650759 C9.46390705,23.1650759 9.9040079,22.6715034 9.9040079,22.0350345 C9.9040079,21.4410483 9.47820357,21.0007724 8.9032518,21.0007724 C8.32018579,21.0007724 7.88278968,21.4819862 7.88278968,22.1203862 L7.88278968,22.1203862 Z M8.14746842,22.0385103 C8.14746842,21.4777379 8.42992121,21.0776276 8.82713251,21.0776276 C9.29814475,21.0776276 9.63894277,21.5213793 9.63894277,22.1315862 C9.63894277,22.3764414 9.58523424,22.5915586 9.47820357,22.7680552 C9.345671,22.9866483 9.17913591,23.0855172 8.94575495,23.0855172 C8.49444872,23.0855172 8.14746842,22.6286345 8.14746842,22.0385103 L8.14746842,22.0385103 Z M10.6872251,22.6950621 L10.6899299,22.8066759 C10.6899299,22.9928276 10.7440248,23.0488276 10.9132646,23.0488276 L10.9777922,23.0488276 L10.9777922,23.1129379 L10.1771873,23.1129379 L10.1771873,23.0488276 L10.2281911,23.0488276 C10.3970445,23.0488276 10.450753,22.9928276 10.4538442,22.8066759 L10.4538442,21.468469 C10.4538442,21.1471448 10.431047,21.1131586 10.199598,21.1131586 L10.1802784,21.1131586 L10.1802784,21.0536828 L10.2023028,21.0498207 C10.3831344,21.0370759 10.6961122,21.0239448 10.8510555,21.0239448 C11.1810345,21.0239448 11.3665028,21.0807172 11.4994218,21.2232276 C11.5925423,21.3220966 11.6462509,21.461131 11.6462509,21.6109793 C11.6462509,21.8593103 11.5021265,22.0682483 11.2741551,22.1474207 C11.3753898,22.2439724 11.4600098,22.3328 11.5925423,22.4926897 L11.7331891,22.6212966 C11.9306356,22.8564966 12.0716688,22.9762207 12.2184979,23.0221793 C12.2691153,23.0426483 12.291526,23.0426483 12.3707365,23.0488276 L12.3707365,23.1121655 C12.3255286,23.1121655 12.3081409,23.1160276 12.27182,23.1160276 C12.0318704,23.1160276 11.8858141,23.0781793 11.7729875,22.9885793 C11.6655705,22.9063172 11.6489556,22.9264 11.4314167,22.6676414 C11.3162718,22.5351724 11.2571538,22.4664276 11.1671244,22.3729655 C11.0906187,22.2934069 11.0767086,22.2771862 11.0230001,22.2377931 C10.9491991,22.2466759 10.9213789,22.2466759 10.8286447,22.2466759 C10.7606397,22.2466759 10.7409337,22.2466759 10.6872251,22.2439724 L10.6872251,22.6950621 L10.6872251,22.6950621 Z M10.6872251,22.1810207 C10.7440248,22.1879724 10.7664356,22.1879724 10.8255536,22.1879724 C11.0005893,22.1879724 11.1161206,22.1578483 11.2065364,22.0879448 C11.3131807,22.0056828 11.3807993,21.8322759 11.3807993,21.6349241 C11.3807993,21.2626207 11.1976494,21.0807172 10.8255536,21.0807172 C10.7749362,21.0807172 10.7378425,21.0838069 10.6872251,21.0903724 L10.6872251,22.1810207 L10.6872251,22.1810207 Z M13.6473767,22.1976276 L13.8282083,22.7641931 C13.8305266,22.7750069 13.8390273,22.7970207 13.850619,22.8375724 C13.8672339,22.8873931 13.8699387,22.9070897 13.8699387,22.9368276 C13.8699387,23.0299034 13.8224124,23.0488276 13.6106694,23.0488276 L13.5770533,23.0488276 L13.5770533,23.1129379 L14.3525427,23.1129379 L14.3525427,23.0488276 L14.3378598,23.0488276 C14.2026224,23.0488276 14.1435044,22.9966897 14.0955918,22.8437517 L14.0449744,22.6784552 L13.5067299,21.0007724 L13.2609844,21.0007724 L13.2864863,21.0733793 L12.7706525,22.7205517 C12.6802367,23.0125241 12.6520301,23.0457379 12.4688801,23.0488276 L12.4688801,23.1129379 L13.1203376,23.1129379 L13.1203376,23.0488276 L13.0983132,23.0488276 L13.0218075,23.0457379 C12.9062762,23.0391724 12.8467718,23.0032552 12.8467718,22.9302621 C12.8467718,22.904 12.8525677,22.8765793 12.8664778,22.8306207 L12.9031851,22.7174621 L13.066629,22.1976276 L13.6473767,22.1976276 L13.6473767,22.1976276 Z M13.6025552,22.0516414 L13.1145417,22.0516414 L13.3541049,21.2796138 L13.6025552,22.0516414 L13.6025552,22.0516414 Z M14.8486704,23.1129379 L15.7246218,23.1129379 L15.7246218,23.0488276 L15.6318876,23.0488276 C15.4653525,23.0488276 15.411644,22.9928276 15.4093257,22.8066759 L15.4093257,21.1691586 L15.9023622,21.1691586 C16.0178936,21.1691586 16.0631015,21.2521931 16.1083094,21.5376 L16.156222,21.5376 L16.1137188,20.9976828 L16.0631015,20.9976828 C16.0433954,21.0498207 16.0348948,21.0536828 15.894248,21.0536828 L14.6875448,21.0536828 C14.546898,21.0536828 14.538011,21.0498207 14.518305,20.9976828 L14.4676876,20.9976828 L14.4251844,21.5376 L14.4730971,21.5376 C14.518305,21.2521931 14.5635129,21.1691586 14.6790442,21.1691586 L15.1724672,21.1691586 L15.1724672,22.8066759 C15.169376,22.9928276 15.1160539,23.0488276 14.9491324,23.0488276 L14.8486704,23.0488276 L14.8486704,23.1129379 L14.8486704,23.1129379 Z M17.1426816,23.1129379 L16.457608,23.1129379 L16.457608,23.0488276 C16.621052,23.040331 16.6662599,22.9893517 16.6662599,22.8074483 L16.669351,22.6950621 L16.669351,21.4715586 L16.6662599,21.3591724 C16.6662599,21.1764966 16.621052,21.1235862 16.457608,21.1131586 L16.457608,21.0536828 L17.1426816,21.0536828 L17.1426816,21.1131586 L17.1287715,21.1131586 C16.9344161,21.1131586 16.9031184,21.1637517 16.9031184,21.4715586 L16.9031184,22.8074483 C16.9058231,22.9928276 16.959918,23.0488276 17.1287715,23.0488276 L17.1426816,23.0488276 L17.1426816,23.1129379 L17.1426816,23.1129379 Z M17.4865708,22.1203862 C17.4865708,22.7108966 17.9262852,23.1650759 18.5008506,23.1650759 C19.0684609,23.1650759 19.5074026,22.6715034 19.5074026,22.0350345 C19.5074026,21.4410483 19.0819846,21.0007724 18.5070329,21.0007724 C17.9239669,21.0007724 17.4865708,21.4819862 17.4865708,22.1203862 L17.4865708,22.1203862 Z M17.7516359,22.0385103 C17.7516359,21.4777379 18.0333159,21.0776276 18.4309136,21.0776276 C18.9019258,21.0776276 19.2427238,21.5213793 19.2427238,22.1315862 C19.2427238,22.3764414 19.1894017,22.5915586 19.0819846,22.7680552 C18.9494521,22.9866483 18.782917,23.0855172 18.549536,23.0855172 C18.0982298,23.0855172 17.7516359,22.6286345 17.7516359,22.0385103 L17.7516359,22.0385103 Z M21.6754499,23.1353379 L20.2152733,21.3387034 L20.2152733,22.6784552 C20.2152733,22.9090207 20.2237739,22.9596138 20.2716866,22.9997793 C20.2968021,23.0229517 20.3284863,23.0360828 20.3590112,23.0391724 C20.381422,23.0434207 20.420834,23.0457379 20.4803384,23.0488276 L20.4969533,23.0488276 L20.4969533,23.1129379 L19.8431775,23.1129379 L19.8431775,23.0488276 L19.8597924,23.0488276 C20.0205316,23.0488276 20.0854455,22.9866483 20.0854455,22.8271448 L20.0854455,21.1961931 C20.0205316,21.1432828 19.9478898,21.1170207 19.8516781,21.1131586 L19.8516781,21.0498207 L20.291779,21.0498207 L21.6190366,22.6815448 L21.6190366,21.468469 C21.6190366,21.1432828 21.6051265,21.1266759 21.3427661,21.1131586 L21.3427661,21.0498207 L22.0054289,21.0498207 L22.0054289,21.1131586 C21.8477809,21.1201103 21.7998682,21.1336276 21.7716616,21.1764966 C21.7546603,21.2027586 21.7488644,21.2294069 21.7488644,21.2857931 L21.7488644,23.1353379 L21.6754499,23.1353379 L21.6754499,23.1353379 Z M24.9304188,22.0137931 L24.9304188,22.7719172 C24.9273276,22.9800828 24.8674368,23.0418759 24.6792638,23.0418759 L24.5873024,23.0418759 L24.5873024,23.1129379 L25.4744591,23.1129379 L25.4744591,23.0418759 L25.4423886,23.0418759 C25.2542155,23.0418759 25.1943247,22.9800828 25.1943247,22.7719172 L25.1912336,22.6460138 L25.1912336,21.2815448 L25.1943247,21.1556414 C25.1943247,20.9494069 25.2480333,20.8937931 25.4335016,20.8822069 L25.4335016,20.8161655 L24.6224641,20.8161655 L24.6224641,20.8822069 L24.6792638,20.8822069 C24.8674368,20.8822069 24.9273276,20.9494069 24.9304188,21.1556414 L24.9304188,21.8878897 L23.700532,21.8878897 L23.700532,21.1556414 C23.7043959,20.9494069 23.7608092,20.8822069 23.9493687,20.8822069 L23.9590285,20.8822069 L23.9590285,20.8161655 L23.2102002,20.8161655 L23.2102002,20.8822069 C23.3867815,20.8976552 23.4339213,20.9524966 23.4366261,21.1556414 L23.4366261,22.7719172 C23.4339213,22.9800828 23.3736441,23.0418759 23.1885622,23.0418759 L23.1727201,23.0418759 L23.1727201,23.1129379 L23.9617332,23.1129379 L23.9617332,23.0418759 L23.9493687,23.0418759 C23.7639004,23.0418759 23.7043959,22.9800828 23.700532,22.7719172 L23.700532,22.0137931 L24.9304188,22.0137931 L24.9304188,22.0137931 Z M26.9249759,22.1976276 L27.1050347,22.7641931 C27.1077395,22.7750069 27.1162401,22.7970207 27.1278319,22.8375724 C27.1448331,22.8873931 27.1475379,22.9070897 27.1475379,22.9368276 C27.1475379,23.0299034 27.0992388,23.0488276 26.8882686,23.0488276 L26.8546525,23.0488276 L26.8546525,23.1129379 L27.6297555,23.1129379 L27.6297555,23.0488276 L27.615459,23.0488276 C27.4802217,23.0488276 27.42149,22.9966897 27.373191,22.8437517 L27.3225736,22.6784552 L26.7835563,21.0007724 L26.5385836,21.0007724 L26.5636991,21.0733793 L26.0478653,22.7205517 C25.9582223,23.0125241 25.9300157,23.0457379 25.7464793,23.0488276 L25.7464793,23.1129379 L26.3979368,23.1129379 L26.3979368,23.0488276 L26.3751396,23.0488276 L26.2990204,23.0457379 C26.1831027,23.0391724 26.1239846,23.0032552 26.1239846,22.9302621 C26.1239846,22.904 26.1297805,22.8765793 26.1436906,22.8306207 L26.1807843,22.7174621 L26.3438419,22.1976276 L26.9249759,22.1976276 L26.9249759,22.1976276 Z M26.879768,22.0516414 L26.3917545,22.0516414 L26.6313178,21.2796138 L26.879768,22.0516414 L26.879768,22.0516414 Z M28.4017674,22.6950621 L28.4048585,22.8066759 C28.4048585,22.9928276 28.458567,23.0488276 28.6270341,23.0488276 L28.691948,23.0488276 L28.691948,23.1129379 L27.8913431,23.1129379 L27.8913431,23.0488276 L27.9423469,23.0488276 C28.1115867,23.0488276 28.1652953,22.9928276 28.168,22.8066759 L28.168,21.468469 C28.168,21.1471448 28.1448165,21.1131586 27.9145266,21.1131586 L27.8944342,21.1131586 L27.8944342,21.0536828 L27.916845,21.0498207 C28.0972902,21.0370759 28.410268,21.0239448 28.5652113,21.0239448 C28.8951903,21.0239448 29.0814314,21.0807172 29.2135776,21.2232276 C29.3066982,21.3220966 29.3600203,21.461131 29.3600203,21.6109793 C29.3600203,21.8593103 29.2162824,22.0682483 28.9883109,22.1474207 C29.0899321,22.2439724 29.1737792,22.3328 29.3066982,22.4926897 L29.4477314,22.6579862 C29.644405,22.8935724 29.7858246,22.9785379 29.9322673,23.025269 C29.9828847,23.0441931 30.0056819,23.0472828 30.0845059,23.0542345 L30.0845059,23.1144828 C30.0396844,23.1144828 30.0230695,23.1179586 29.9855895,23.1179586 C29.7464126,23.1179586 29.5999699,23.092469 29.486757,23.0020966 C29.3801127,22.9198345 29.3631114,22.9264 29.145959,22.6676414 C29.0304277,22.5351724 28.9713096,22.4664276 28.8808938,22.3729655 C28.8051609,22.2934069 28.7908644,22.2771862 28.7379287,22.2377931 C28.6641277,22.2466759 28.6355347,22.2466759 28.5424142,22.2466759 C28.4751819,22.2466759 28.4558623,22.2466759 28.4017674,22.2439724 L28.4017674,22.6950621 L28.4017674,22.6950621 Z M28.4017674,22.1810207 C28.458567,22.1879724 28.4805914,22.1879724 28.5397094,22.1879724 C28.7143587,22.1879724 28.8302764,22.1578483 28.9199195,22.0879448 C29.0269501,22.0056828 29.0949552,21.8322759 29.0949552,21.6349241 C29.0949552,21.2626207 28.9121916,21.0807172 28.5397094,21.0807172 C28.489092,21.0807172 28.4527711,21.0838069 28.4017674,21.0903724 L28.4017674,22.1810207 L28.4017674,22.1810207 Z M37.7412561,22.2439724 C37.7941918,22.2466759 37.8142842,22.2466759 37.8819029,22.2466759 C37.9757962,22.2466759 38.0036165,22.2466759 38.0766446,22.2377931 C38.1299667,22.2771862 38.1442633,22.2934069 38.2203826,22.3729655 C38.3107984,22.4664276 38.3699164,22.5351724 38.4858341,22.6676414 C38.7026002,22.9264 38.7199878,22.9198345 38.8266321,23.0020966 C38.9386859,23.092469 39.085515,23.1168 39.3254646,23.1168 C39.3617855,23.1168 39.3787867,23.1140966 39.4236082,23.1140966 L39.4236082,23.0530759 C39.3451706,23.0465103 39.3231462,23.0434207 39.271756,23.0244966 C39.1253134,22.9777655 38.9842802,22.8935724 38.7872201,22.6579862 L38.6458005,22.4926897 C38.5136543,22.3328 38.4290344,22.2439724 38.3277996,22.1474207 C38.5561575,22.0682483 38.699509,21.8593103 38.699509,21.6109793 C38.699509,21.461131 38.6458005,21.3220966 38.5534527,21.2232276 C38.4205338,21.0807172 38.2342927,21.0239448 37.9047,21.0239448 C37.7497567,21.0239448 37.4375517,21.0370759 37.2563337,21.0498207 L37.2335366,21.0536828 L37.2335366,21.1131586 L37.253629,21.1131586 C37.485078,21.1131586 37.5067159,21.1471448 37.5067159,21.468469 L37.5067159,22.8066759 C37.5043976,22.9928276 37.4510754,23.0488276 37.2814492,23.0488276 L37.2308318,23.0488276 L37.2308318,23.1129379 L38.0318231,23.1129379 L38.0318231,23.0488276 L37.9661364,23.0488276 C37.7976694,23.0488276 37.7439608,22.9928276 37.7439608,22.8066759 L37.7412561,22.6950621 L37.7412561,22.2439724 L37.7412561,22.2439724 Z M37.7412561,21.0903724 C37.7918735,21.0838069 37.8289671,21.0807172 37.8795845,21.0807172 C38.2512939,21.0807172 38.4344439,21.2626207 38.4344439,21.6349241 C38.4344439,21.8322759 38.3672116,22.0056828 38.2594082,22.0879448 C38.1697652,22.1578483 38.0542339,22.1879724 37.8795845,22.1879724 C37.8200801,22.1879724 37.7976694,22.1879724 37.7412561,22.1810207 L37.7412561,21.0903724 L37.7412561,21.0903724 Z M30.2900666,21.0498207 L30.5134014,21.0401655 C30.5501086,21.0370759 30.6173409,21.0370759 30.7131662,21.0332138 C30.9082943,21.0278069 31.04585,21.0239448 31.1273788,21.0239448 C31.4828597,21.0239448 31.7054217,21.0868966 31.8943675,21.2494897 C32.1061105,21.4283034 32.2185507,21.6971034 32.2185507,22.0122483 C32.2185507,22.4861241 31.9422802,22.9167448 31.5531831,23.0488276 C31.3754426,23.1090759 31.3476224,23.118731 30.9720491,23.1156414 L30.270747,23.1129379 L30.270747,23.0488276 L30.3186596,23.0488276 C30.4848083,23.0488276 30.5412216,22.9928276 30.5412216,22.8074483 L30.5443128,22.6950621 L30.5443128,21.468469 C30.5443128,21.1471448 30.521902,21.1131586 30.2931578,21.1131586 L30.270747,21.1131586 L30.270747,21.0536828 L30.2900666,21.0498207 L30.2900666,21.0498207 Z M30.7780801,22.8201931 C30.7780801,23.0391724 30.7904447,23.0523034 31.0149386,23.0523034 C31.2738215,23.0523034 31.3700331,23.0337655 31.5025657,22.9627034 C31.7792226,22.8136276 31.9538719,22.4625655 31.9538719,22.0643862 C31.9538719,21.7399724 31.8464549,21.4510897 31.6656233,21.2896552 C31.5450689,21.1795862 31.4233553,21.1305379 31.2065892,21.1069793 C31.1107639,21.0934621 31.04585,21.0903724 30.9473199,21.0903724 C30.8793149,21.0903724 30.8314022,21.0903724 30.7780801,21.0973241 L30.7780801,22.8201931 L30.7780801,22.8201931 Z M34.3212977,23.1724138 L34.8885216,21.4155586 C34.9723687,21.1564138 35.0094624,21.1201103 35.1841117,21.1131586 L35.1841117,21.0536828 L34.6006593,21.0536828 L34.6006593,21.1131586 C34.7641033,21.1201103 34.8174254,21.1471448 34.8174254,21.2232276 C34.8174254,21.2398345 34.8147207,21.2564414 34.7981058,21.3024 L34.7641033,21.4086069 L34.3023644,22.8406621 L33.9294959,21.8056276 L34.0848256,21.3626483 C34.1578537,21.1506207 34.1999705,21.1170207 34.3916211,21.1131586 L34.3916211,21.0536828 L33.2336033,21.0536828 L33.2336033,21.1131586 C33.4310498,21.1201103 33.4700754,21.1506207 33.5438763,21.3591724 L33.7521418,21.9558621 L33.4476646,22.8406621 L32.9735613,21.4383448 C32.9318309,21.3120552 32.9202391,21.2660966 32.9202391,21.2294069 C32.9202391,21.1471448 32.9681518,21.1131586 33.1010707,21.1131586 L33.1207767,21.1131586 L33.1207767,21.0536828 L32.3874041,21.0536828 L32.3874041,21.1131586 L32.4047918,21.1170207 C32.624649,21.1228138 32.6559468,21.1533241 32.7567952,21.4653793 L33.3263374,23.1724138 L33.4646659,23.1724138 L33.8170557,22.140469 L34.1860604,23.1724138 L34.3212977,23.1724138 L34.3212977,23.1724138 Z M33.8653547,21.6206345 L33.7463459,21.2962207 L33.7266399,21.2436966 C33.7212304,21.2270897 33.7154345,21.1931034 33.7154345,21.1795862 C33.7154345,21.136331 33.7436412,21.1131586 33.8054639,21.1131586 L33.9213816,21.1131586 C33.9777949,21.1131586 34.0087063,21.1401931 34.0087063,21.1834483 C34.0087063,21.2066207 33.9998193,21.233269 33.9723854,21.3151448 L33.8653547,21.6206345 L33.8653547,21.6206345 Z M35.6813986,22.1976276 L35.5183411,22.7174621 L35.480861,22.8306207 C35.4673373,22.8765793 35.4619278,22.904 35.4619278,22.9302621 C35.4619278,23.0032552 35.5210458,23.0391724 35.6365771,23.0457379 L35.7126964,23.0488276 L35.7347208,23.0488276 L35.7347208,23.1129379 L35.0840361,23.1129379 L35.0840361,23.0488276 C35.2664133,23.0457379 35.2953927,23.0125241 35.3854221,22.7205517 L35.9016422,21.0733793 L35.875754,21.0007724 L36.1207267,21.0007724 L36.6593576,22.6784552 L36.7103614,22.8437517 C36.758274,22.9966897 36.817392,23.0488276 36.9526294,23.0488276 L36.9665395,23.0488276 L36.9665395,23.1129379 L36.1914365,23.1129379 L36.1914365,23.0488276 L36.225439,23.0488276 C36.4367956,23.0488276 36.4850947,23.0299034 36.4850947,22.9368276 C36.4850947,22.9070897 36.4816171,22.8873931 36.4650022,22.8375724 C36.4537969,22.7970207 36.4452962,22.7750069 36.4425915,22.7641931 L36.2621463,22.1976276 L35.6813986,22.1976276 L35.6813986,22.1976276 Z M35.9692609,21.2796138 L35.7293113,22.0516414 L36.2169384,22.0516414 L35.9692609,21.2796138 L35.9692609,21.2796138 Z M40.8733522,22.3667862 L40.8227348,22.3667862 C40.7976193,22.1277241 40.7725038,22.1045517 40.5499418,22.1045517 L40.1515714,22.1045517 L40.1515714,22.7108966 C40.1515714,22.9070897 40.1608448,22.9460966 40.2056663,22.9735172 C40.228077,22.9866483 40.2539653,22.9928276 40.282172,22.9928276 L40.6484719,22.9928276 C40.8540326,22.9928276 40.90465,22.9800828 40.9556538,22.9070897 C41.0008617,22.8472276 41.0429784,22.7348414 41.0650028,22.6185931 L41.1160066,22.6185931 L41.0735034,23.1129379 L39.5746876,23.1129379 L39.5746876,23.0488276 L39.6419199,23.0488276 C39.8841879,23.0488276 39.9189632,23.0059586 39.9189632,22.6950621 L39.9189632,21.4715586 C39.9189632,21.1598897 39.8895974,21.1131586 39.6929237,21.1131586 L39.6307145,21.1131586 L39.6307145,21.0536828 L40.9842468,21.0536828 L41.0058848,21.5109517 L40.9556538,21.5109517 C40.9216512,21.2066207 40.8822392,21.1637517 40.6430624,21.1637517 L40.1515714,21.1637517 L40.1515714,21.9852138 L40.5580561,21.9852138 C40.7775269,21.9852138 40.7976193,21.9655172 40.8227348,21.7368828 L40.8733522,21.7368828 L40.8733522,22.3667862 L40.8733522,22.3667862 Z" id="Fill-1" fill="#FFFFFF" mask="url(#mask-2)"></path>
                                        </g>
                                    </g>
                                </g>
                            </g>
                        </g>
                    </g>
                </g>
            </g>
        </g>
    </g>
</svg>